<?xml version="1.0" encoding="utf-8"?>
<!-- Uploaded to: SVG Repo, www.svgrepo.com, Generator: SVG Repo Mixer Tools -->
<svg width="800px" height="800px" viewBox="0 0 48 48" fill="none" xmlns="http://www.w3.org/2000/svg">
<g id="day">
<g id="day_2">
<path id="Combined Shape" fill-rule="evenodd" clip-rule="evenodd" d="M25 9V5C25 4.44772 24.5523 4 24 4C23.4477 4 23 4.44772 23 5V9C23 9.55228 23.4477 10 24 10C24.5523 10 25 9.55228 25 9ZM24.0008 34C27.7953 34 31.2116 31.8658 32.9084 28.5468C33.1598 28.0551 33.7622 27.8602 34.254 28.1116C34.7457 28.363 34.9406 28.9655 34.6892 29.4572C32.6537 33.4387 28.5537 36 24.0008 36C17.3732 36 12.0008 30.6269 12.0008 24C12.0008 21.0466 13.0678 18.3423 14.8374 16.2516L9.85729 11.2715C9.46677 10.881 9.46677 10.2478 9.85729 9.85729C10.2478 9.46677 10.881 9.46677 11.2715 9.85729L16.2516 14.8374C18.3423 13.0674 21.0469 12 24.0008 12C30.2903 12 35.4514 16.8414 35.9597 23H43C43.5523 23 44 23.4477 44 24C44 24.5523 43.5523 25 43 25H35.0008H33C32.4477 25 32 24.5523 32 24C32 23.4477 32.4477 23 33 23H33.9514C33.4495 17.9476 29.185 14 24.0008 14C21.5993 14 19.3956 14.8466 17.6717 16.2575L18.7075 17.2933C19.098 17.6838 19.098 18.317 18.7075 18.7075C18.317 19.098 17.6838 19.098 17.2933 18.7075L16.2575 17.6718C14.847 19.3956 14.0008 21.5991 14.0008 24C14.0008 29.5224 18.4778 34 24.0008 34ZM18 24C18 27.3137 20.6863 30 24 30C24.5523 30 25 30.4477 25 31C25 31.5523 24.5523 32 24 32C19.5817 32 16 28.4183 16 24C16 23.4477 16.4477 23 17 23C17.5523 23 18 23.4477 18 24ZM25 39V43C25 43.5523 24.5523 44 24 44C23.4477 44 23 43.5523 23 43V39C23 38.4477 23.4477 38 24 38C24.5523 38 25 38.4477 25 39ZM9 25H5C4.44772 25 4 24.5523 4 24C4 23.4477 4.44772 23 5 23H9C9.55228 23 10 23.4477 10 24C10 24.5523 9.55228 25 9 25ZM33.9003 35.3145L36.7283 38.1425C37.1188 38.533 37.752 38.533 38.1425 38.1425C38.533 37.752 38.533 37.1188 38.1425 36.7283L35.3145 33.9003C34.924 33.5098 34.2908 33.5098 33.9003 33.9003C33.5098 34.2908 33.5098 34.924 33.9003 35.3145ZM12.6855 33.9003L9.85749 36.7283C9.46697 37.1188 9.46697 37.752 9.85749 38.1425C10.248 38.533 10.8812 38.533 11.2717 38.1425L14.0997 35.3145C14.4902 34.924 14.4902 34.2908 14.0997 33.9003C13.7092 33.5098 13.076 33.5098 12.6855 33.9003ZM33.9005 12.6853L36.7285 9.85729C37.119 9.46677 37.7522 9.46677 38.1427 9.85729C38.5332 10.2478 38.5332 10.881 38.1427 11.2715L35.3147 14.0995C34.9242 14.49 34.291 14.49 33.9005 14.0995C33.51 13.709 33.51 13.0758 33.9005 12.6853Z" fill="#000000"/>
</g>
</g>
</svg>